<svg version="1" xmlns="http://www.w3.org/2000/svg" width="746.667" height="746.667" viewBox="0 0 560.000000 560.000000"><path d="M266 18.7c-13.3 1.4-35.8 7.6-50.3 14-4.4 1.9-10.9 3.9-14.6 4.4-10.8 1.5-15.7 3.6-22 9.5-8 7.4-10.6 13.3-10.5 23.9.1 9 1.4 12.7 6.9 19.9 1.9 2.5 3.5 4.8 3.5 5 0 .2-2.1 3.8-4.6 8-10.9 18.1-15 37.9-14.1 67.1.4 9.9.8 18.9.9 19.9.2 1.3-1 2.6-4.1 4.2-6.7 3.6-7.1 4.2-7.1 9.9 0 5.8 1.9 8.5 6.1 8.5 3.5 0 9.7 1.9 10.5 3.2.4.7 1.1 5.5 1.5 10.7.9 11.9 3.7 19.5 9.4 25.8 8.4 9.4 19.5 13.3 38.1 13.3 32.7 0 52.4-16 52.4-42.6 0-6.4.3-7.5 2.1-8.4 3.4-1.9 12-2.2 16.9-.8l4.5 1.4.6 10.4c.8 12.8 3.3 20 9.4 26.7 8.4 9.4 19.5 13.3 38.1 13.3 32.9 0 52.4-16 52.4-43.1v-7.7l4.4-1.1c2.5-.6 5.8-1.1 7.5-1.1 4 0 6.1-3.2 6.1-9.1 0-5.2-.9-6.2-8.1-9.7l-4.6-2.2 1.3-5.8c.7-3.1 1.8-10.1 2.3-15.4 2.9-26-.1-47.9-9.1-67.8-3-6.5-3-6.5-1.4-11.6 1.9-6 2.1-13.1.4-18.5-2.4-8.1-11.9-15.8-19.4-15.9-2.6 0-3.3-.6-5.2-4.5-3.2-6.6-8.7-9.8-16.8-10-6.3-.2-6.4-.2-12.2-5.7-14.6-13.9-42.6-21.1-71.2-18.1zm59.3 78.9c1.6 1.4 6.5 4.3 10.7 6.4 6 3 8 4.6 9 7.1 2.6 6.1 8.8 12.7 16 16.9 6.7 3.9 7 4.3 8.6 9.8 1.7 5.9 6.6 16.4 15.3 32.5 4.7 8.7 7.7 18.7 5.5 18.7-.5 0-5.2-.9-10.4-2s-11-2-12.8-2c-1.9 0-4.6-.8-6-1.9-1.5-1-5.4-2.8-8.7-4.1-11.2-4.3-30.6-2-38.3 4.5-1.7 1.4-6.1 3.4-9.8 4.6-3.8 1.2-9.5 3.2-12.6 4.5-8.5 3.6-15.9 3.3-25.6-1-4.3-1.8-9.1-3.6-10.9-4-1.8-.4-4.9-2.1-6.9-3.7-8.8-6.9-27.4-9.3-38.9-4.9-3.3 1.3-7.3 3.2-9 4.2-1.6 1-4.6 1.8-6.7 1.8-3.5 0-17 2.3-21.1 3.6-1.9.6-2 .3-1.4-11.2.6-12.9 2.1-19.6 6.8-31 3.7-8.9 14.8-26 22-33.9 6-6.5 4.4-6.3 22.4-2.4 8.9 1.9 12 2.1 27.5 1.6 28.1-1 42.6-3.9 62.5-12.6 5-2.1 9.2-4 9.4-4 .2-.1 1.7 1.1 3.4 2.5zm-81.2 101.3c12.1 3.8 16.7 12.3 15.7 28.6-1.4 20.5-19.8 31.8-49.3 30.2-13.2-.7-19.1-2.6-25.3-8.2-6.1-5.5-8.3-10.5-8.9-21-1.4-20.6 5.1-28.8 24.7-31.6 3-.4 12.5-.6 21-.4 12.2.3 16.9.8 22.1 2.4zm124 0c12.1 3.8 16.7 12.3 15.7 28.6-1.4 20.5-19.8 31.8-49.3 30.2-13.2-.7-19.1-2.6-25.3-8.2-6.1-5.5-8.3-10.5-8.9-21-1.4-20.6 5.1-28.8 24.7-31.6 3-.4 12.5-.6 21-.4 12.2.3 16.9.8 22.1 2.4z"/><path d="M222.3 214c-3.4 2.1-6.3 6.6-6.3 10 0 5.4 6.5 12 11.8 12 5.7 0 12.2-6.4 12.2-12s-6.5-12-12.2-12c-1.3 0-3.7.9-5.5 2zM326.3 214c-3.4 2.1-6.3 6.6-6.3 10 0 5.4 6.5 12 11.8 12 5.7 0 12.2-6.4 12.2-12s-6.5-12-12.2-12c-1.3 0-3.7.9-5.5 2zM243.6 295.6c-3.5 3.4 2.6 18.4 10.4 25.9 1.7 1.7 2.9 2.3 2.5 1.4-.4-1 .6-2.1 3.2-3.6 5.5-3 10.2-3.5 15.8-1.9 3.6 1.1 5.3 1.2 6.9.4 5.7-3.1 22.7 1 21.1 5.1-.3.9.8.3 2.5-1.4 7.8-7.5 13.9-22.5 10.4-25.9-2.2-2.2-4.4-2-4.4.5 0 1.1-1.3 3.4-2.9 5l-2.9 2.9h-50.4l-2.9-2.9c-1.6-1.6-2.9-3.9-2.9-5 0-2.6-4.1-2.9-6.4-.5zM275.8 331.7c.7.3 1.6.2 1.9-.1.4-.3-.2-.6-1.3-.5-1.1 0-1.4.3-.6.6zM282.8 331.7c.7.3 1.6.2 1.9-.1.4-.3-.2-.6-1.3-.5-1.1 0-1.4.3-.6.6zM220.5 367.9c-5.5 1-12.7 2.6-16 3.5-20.6 6-33.8 18-36 32.9-.7 4.8-.8 4.8-8.4 8.7-28.6 14.3-53.2 39.6-66.4 68.1-9.5 20.4-12.6 34.3-13.4 60.2l-.6 18.7H206V456.3l7 3.6 7 3.6V560h260v-11.5c0-27.1-4.6-48.5-15-70-13.1-27.1-37.5-51.7-65.1-65.5l-7.6-3.9-1.2-5.8c-3.6-18.6-21.2-30.5-51.6-35.3-3.8-.6-8-1.3-9.2-1.6l-2.3-.4v21.8c0 29.9-2.2 37.6-14.4 49.8-18.8 18.8-47.4 19.1-66.7.7-3.1-2.9-7.1-8-8.8-11.2-5.3-10-6.1-15.1-6.1-39.3 0-12-.3-21.8-.7-21.7-.5 0-5.3.9-10.8 1.8zM354 498c0 40.7-.1 42.1-2 44-2.6 2.6-7.4 2.6-10 0-1.9-1.9-2-3.3-2-40.3v-38.2l6.8-3.6c3.7-2 6.8-3.7 7-3.8.1 0 .2 18.8.2 41.9z"/></svg>